# WaveFront *.obj file (generated by Autodesk ATF)

mtllib table.mtl

g Body2

v 0.000000 -32.500000 15.000000
v -7.500000 -32.500000 12.500000
v -15.000000 -32.500000 10.000000
v -15.000000 -32.500000 0.000000
v -5.000000 -32.500000 0.000000
v 5.000000 -32.500000 0.000000
v 15.000000 -32.500000 0.000000
v 15.000000 -32.500000 10.000000
v 7.500000 -32.500000 12.500000
v 5.000000 -32.500000 7.500000
v -5.000000 -32.500000 7.500000
v -15.000000 -21.666667 10.000000
v -15.000000 -10.833333 10.000000
v -15.000000 0.000000 10.000000
v -15.000000 10.833333 10.000000
v -15.000000 21.666667 10.000000
v -15.000000 32.500000 10.000000
v -15.000000 32.500000 0.000000
v -15.000000 21.666667 0.000000
v -15.000000 10.833333 0.000000
v -15.000000 0.000000 0.000000
v -15.000000 -10.833333 0.000000
v -15.000000 -21.666667 0.000000
v -5.000000 32.500000 0.000000
v 5.000000 32.500000 0.000000
v 15.000000 32.500000 0.000000
v 15.000000 21.666667 0.000000
v 15.000000 10.833333 0.000000
v 15.000000 0.000000 0.000000
v 15.000000 -10.833333 0.000000
v 15.000000 -21.666667 0.000000
v -5.000000 -21.666667 0.000000
v 5.000000 -21.666667 0.000000
v -5.000000 -10.833333 0.000000
v 5.000000 -10.833333 0.000000
v -5.000000 0.000000 0.000000
v 5.000000 0.000000 0.000000
v -5.000000 10.833333 0.000000
v 5.000000 10.833333 0.000000
v -5.000000 21.666667 0.000000
v 5.000000 21.666667 0.000000
v 15.000000 32.500000 10.000000
v 15.000000 21.666667 10.000000
v 15.000000 10.833333 10.000000
v 15.000000 0.000000 10.000000
v 15.000000 -10.833333 10.000000
v 15.000000 -21.666667 10.000000
v 7.500000 32.500000 12.500000
v 0.000000 32.500000 15.000000
v 0.000000 21.666667 15.000000
v 0.000000 10.833333 15.000000
v 0.000000 0.000000 15.000000
v 0.000000 -10.833333 15.000000
v 0.000000 -21.666667 15.000000
v 7.500000 -21.666667 12.500000
v 7.500000 -10.833333 12.500000
v 7.500000 0.000000 12.500000
v 7.500000 10.833333 12.500000
v 7.500000 21.666667 12.500000
v -7.500000 32.500000 12.500000
v -7.500000 -21.666667 12.500000
v -7.500000 -10.833333 12.500000
v -7.500000 0.000000 12.500000
v -7.500000 10.833333 12.500000
v -7.500000 21.666667 12.500000
v -5.000000 32.500000 7.500000
v 5.000000 32.500000 7.500000
vt -5.000000 -7.500000 0.000000
vt 0.000000 -5.000000 0.000000
vt -7.500000 -0.000000 0.000000
vt 0.000000 5.000000 0.000000
vt -5.000000 7.500000 0.000000
vt -2.500000 15.000000 0.000000
vt 7.500000 15.000000 0.000000
vt 7.500000 5.000000 0.000000
vt 7.500000 -5.000000 0.000000
vt 7.500000 -15.000000 0.000000
vt -2.500000 -15.000000 0.000000
vt 0.000000 -32.500000 0.000000
vt 10.000000 -32.500000 0.000000
vt 0.000000 -21.666667 0.000000
vt 10.000000 -21.666667 0.000000
vt 0.000000 -10.833333 0.000000
vt 10.000000 -10.833333 0.000000
vt 0.000000 0.000000 0.000000
vt 10.000000 0.000000 0.000000
vt 0.000000 10.833333 0.000000
vt 10.000000 10.833333 0.000000
vt 0.000000 21.666667 0.000000
vt 10.000000 21.666667 0.000000
vt 0.000000 32.500000 0.000000
vt 10.000000 32.500000 0.000000
vt 20.000000 -32.500000 0.000000
vt 30.000000 -32.500000 0.000000
vt 20.000000 -21.666667 0.000000
vt 30.000000 -21.666667 0.000000
vt 20.000000 -10.833333 0.000000
vt 30.000000 -10.833333 0.000000
vt 20.000000 0.000000 0.000000
vt 30.000000 0.000000 0.000000
vt 20.000000 10.833333 0.000000
vt 30.000000 10.833333 0.000000
vt 20.000000 21.666667 0.000000
vt 30.000000 21.666667 0.000000
vt 20.000000 32.500000 0.000000
vt 30.000000 32.500000 0.000000
vt 10.000000 32.500000 0.000000
vt 10.000000 21.666667 0.000000
vt 10.000000 10.833333 0.000000
vt 10.000000 0.000000 0.000000
vt 10.000000 -10.833333 0.000000
vt 10.000000 -21.666667 0.000000
vt 10.000000 -32.500000 0.000000
vt -0.000000 -21.666667 0.000000
vt 0.000000 -32.500000 0.000000
vt -0.000000 32.500000 0.000000
vt -0.000000 21.666667 0.000000
vt -0.000000 10.833333 0.000000
vt -0.000000 0.000000 0.000000
vt -0.000000 -10.833333 0.000000
vt 0.000000 -32.500000 0.000000
vt 10.000000 -32.500000 0.000000
vt 0.000000 -21.666667 0.000000
vt 10.000000 -21.666667 0.000000
vt 0.000000 -10.833333 0.000000
vt 10.000000 -10.833333 0.000000
vt -0.000000 0.000000 0.000000
vt 10.000000 0.000000 0.000000
vt -0.000000 10.833333 0.000000
vt 10.000000 10.833333 0.000000
vt -0.000000 21.666667 0.000000
vt 10.000000 21.666667 0.000000
vt -0.000000 32.500000 0.000000
vt 10.000000 32.500000 0.000000
vt 7.905694 -32.500000 0.000000
vt 15.811388 -32.500000 0.000000
vt 7.905694 -21.666667 0.000000
vt 15.811388 -21.666667 0.000000
vt 7.905694 -10.833333 0.000000
vt 15.811388 -10.833333 0.000000
vt 7.905694 0.000000 0.000000
vt 15.811388 0.000000 0.000000
vt 7.905694 10.833333 0.000000
vt 15.811388 10.833333 0.000000
vt 7.905694 21.666667 0.000000
vt 15.811388 21.666667 0.000000
vt 7.905694 32.500000 0.000000
vt 15.811388 32.500000 0.000000
vt 0.000000 32.500000 0.000000
vt 0.000000 21.666667 0.000000
vt 0.000000 10.833333 0.000000
vt 0.000000 0.000000 0.000000
vt 0.000000 -10.833333 0.000000
vt 0.000000 -21.666667 0.000000
vt 0.000000 -32.500000 0.000000
vt 7.905694 -32.500000 0.000000
vt 15.811388 -32.500000 0.000000
vt 7.905694 -21.666667 0.000000
vt 15.811388 -21.666667 0.000000
vt 7.905694 -10.833333 0.000000
vt 15.811388 -10.833333 0.000000
vt 7.905694 0.000000 0.000000
vt 15.811388 0.000000 0.000000
vt 7.905694 10.833333 0.000000
vt 15.811388 10.833333 0.000000
vt 7.905694 21.666667 0.000000
vt 15.811388 21.666667 0.000000
vt 7.905694 32.500000 0.000000
vt 15.811388 32.500000 0.000000
vt 0.000000 32.500000 0.000000
vt 0.000000 21.666667 0.000000
vt 0.000000 10.833333 0.000000
vt 0.000000 0.000000 0.000000
vt 0.000000 -10.833333 0.000000
vt 0.000000 -21.666667 0.000000
vt 0.000000 -32.500000 0.000000
vt -7.500000 -15.000000 0.000000
vt 2.500000 -15.000000 0.000000
vt 0.000000 -5.000000 0.000000
vt 5.000000 -7.500000 0.000000
vt 7.500000 -0.000000 0.000000
vt 0.000000 5.000000 0.000000
vt 5.000000 7.500000 0.000000
vt 2.500000 15.000000 0.000000
vt -7.500000 15.000000 0.000000
vt -7.500000 5.000000 0.000000
vt -7.500000 -5.000000 0.000000
vn 0.000000 -1.000000 0.000000
vn 0.000000 -1.000000 0.000000
vn 0.000000 -1.000000 0.000000
vn 0.000000 -1.000000 0.000000
vn 0.000000 -1.000000 0.000000
vn 0.000000 -1.000000 0.000000
vn 0.000000 -1.000000 0.000000
vn 0.000000 -1.000000 0.000000
vn 0.000000 -1.000000 0.000000
vn 0.000000 -1.000000 0.000000
vn 0.000000 -1.000000 0.000000
vn -1.000000 0.000000 0.000000
vn -1.000000 0.000000 0.000000
vn -1.000000 0.000000 0.000000
vn -1.000000 0.000000 0.000000
vn -1.000000 0.000000 0.000000
vn -1.000000 0.000000 0.000000
vn -1.000000 0.000000 0.000000
vn -1.000000 0.000000 0.000000
vn -1.000000 0.000000 0.000000
vn -1.000000 0.000000 0.000000
vn -1.000000 0.000000 0.000000
vn -1.000000 0.000000 0.000000
vn -1.000000 0.000000 0.000000
vn -1.000000 0.000000 0.000000
vn 0.000000 0.000000 -1.000000
vn 0.000000 0.000000 -1.000000
vn 0.000000 0.000000 -1.000000
vn 0.000000 0.000000 -1.000000
vn 0.000000 0.000000 -1.000000
vn 0.000000 0.000000 -1.000000
vn 0.000000 0.000000 -1.000000
vn 0.000000 0.000000 -1.000000
vn 0.000000 0.000000 -1.000000
vn 0.000000 0.000000 -1.000000
vn 0.000000 0.000000 -1.000000
vn 0.000000 0.000000 -1.000000
vn 0.000000 0.000000 -1.000000
vn 0.000000 0.000000 -1.000000
vn 0.000000 0.000000 -1.000000
vn 0.000000 0.000000 -1.000000
vn 0.000000 0.000000 -1.000000
vn 0.000000 0.000000 -1.000000
vn 0.000000 0.000000 -1.000000
vn 0.000000 0.000000 -1.000000
vn 0.000000 0.000000 -1.000000
vn 0.000000 0.000000 -1.000000
vn 0.000000 0.000000 -1.000000
vn 0.000000 0.000000 -1.000000
vn 0.000000 0.000000 -1.000000
vn 0.000000 0.000000 -1.000000
vn 0.000000 0.000000 -1.000000
vn 0.000000 0.000000 -1.000000
vn 1.000000 0.000000 -0.000000
vn 1.000000 0.000000 -0.000000
vn 1.000000 0.000000 -0.000000
vn 1.000000 0.000000 -0.000000
vn 1.000000 0.000000 -0.000000
vn 1.000000 0.000000 -0.000000
vn 1.000000 0.000000 -0.000000
vn 1.000000 0.000000 -0.000000
vn 1.000000 0.000000 -0.000000
vn 1.000000 0.000000 -0.000000
vn 1.000000 0.000000 -0.000000
vn 1.000000 0.000000 -0.000000
vn 1.000000 0.000000 -0.000000
vn 1.000000 0.000000 -0.000000
vn 0.316228 -0.000000 0.948683
vn 0.316228 -0.000000 0.948683
vn 0.316228 -0.000000 0.948683
vn 0.316228 -0.000000 0.948683
vn 0.316228 -0.000000 0.948683
vn 0.316228 -0.000000 0.948683
vn 0.316228 -0.000000 0.948683
vn 0.316228 -0.000000 0.948683
vn 0.316228 -0.000000 0.948683
vn 0.316228 -0.000000 0.948683
vn 0.316228 -0.000000 0.948683
vn 0.316228 -0.000000 0.948683
vn 0.316228 -0.000000 0.948683
vn 0.316228 -0.000000 0.948683
vn 0.316228 -0.000000 0.948683
vn 0.316228 -0.000000 0.948683
vn 0.316228 -0.000000 0.948683
vn 0.316228 -0.000000 0.948683
vn 0.316228 -0.000000 0.948683
vn 0.316228 -0.000000 0.948683
vn 0.316228 -0.000000 0.948683
vn -0.316228 0.000000 0.948683
vn -0.316228 0.000000 0.948683
vn -0.316228 0.000000 0.948683
vn -0.316228 0.000000 0.948683
vn -0.316228 0.000000 0.948683
vn -0.316228 0.000000 0.948683
vn -0.316228 0.000000 0.948683
vn -0.316228 0.000000 0.948683
vn -0.316228 0.000000 0.948683
vn -0.316228 0.000000 0.948683
vn -0.316228 0.000000 0.948683
vn -0.316228 0.000000 0.948683
vn -0.316228 0.000000 0.948683
vn -0.316228 0.000000 0.948683
vn -0.316228 0.000000 0.948683
vn -0.316228 0.000000 0.948683
vn -0.316228 0.000000 0.948683
vn -0.316228 0.000000 0.948683
vn -0.316228 0.000000 0.948683
vn -0.316228 0.000000 0.948683
vn -0.316228 0.000000 0.948683
vn 0.000000 1.000000 0.000000
vn 0.000000 1.000000 0.000000
vn 0.000000 1.000000 0.000000
vn 0.000000 1.000000 0.000000
vn 0.000000 1.000000 0.000000
vn 0.000000 1.000000 0.000000
vn 0.000000 1.000000 0.000000
vn 0.000000 1.000000 0.000000
vn 0.000000 1.000000 0.000000
vn 0.000000 1.000000 0.000000
vn 0.000000 1.000000 0.000000
usemtl Steel_-_Satin
f 2/1/1 11/2/2 1/3/3
f 1/3/3 11/2/2 10/4/4
f 1/3/3 10/4/4 9/5/5
f 9/5/5 10/4/4 8/6/6
f 8/6/6 10/4/4 7/7/7
f 7/7/7 10/4/4 6/8/8
f 6/8/8 10/4/4 5/9/9
f 5/9/9 10/4/4 11/2/2
f 5/9/9 11/2/2 4/10/10
f 4/10/10 11/2/2 3/11/11
f 3/11/11 11/2/2 2/1/1
f 4/12/12 3/13/13 23/14/14
f 23/14/14 3/13/13 12/15/15
f 23/14/14 12/15/15 22/16/16
f 22/16/16 12/15/15 13/17/17
f 22/16/16 13/17/17 21/18/18
f 21/18/18 13/17/17 14/19/19
f 21/18/18 14/19/19 20/20/20
f 20/20/20 14/19/19 15/21/21
f 20/20/20 15/21/21 19/22/22
f 19/22/22 15/21/21 16/23/23
f 19/22/22 16/23/23 18/24/24
f 18/24/24 16/23/23 17/25/25
f 5/26/26 4/27/27 32/28/28
f 32/28/28 4/27/27 23/29/29
f 32/28/28 23/29/29 34/30/30
f 34/30/30 23/29/29 22/31/31
f 34/30/30 22/31/31 36/32/32
f 36/32/32 22/31/31 21/33/33
f 36/32/32 21/33/33 38/34/34
f 38/34/34 21/33/33 20/35/35
f 38/34/34 20/35/35 40/36/36
f 40/36/36 20/35/35 19/37/37
f 40/36/36 19/37/37 24/38/38
f 24/38/38 19/37/37 18/39/39
f 24/38/38 25/40/40 40/36/36
f 40/36/36 25/40/40 41/41/41
f 40/36/36 41/41/41 38/34/34
f 38/34/34 41/41/41 39/42/42
f 38/34/34 39/42/42 36/32/32
f 36/32/32 39/42/42 37/43/43
f 36/32/32 37/43/43 34/30/30
f 34/30/30 37/43/43 35/44/44
f 34/30/30 35/44/44 32/28/28
f 32/28/28 35/44/44 33/45/45
f 32/28/28 33/45/45 5/26/26
f 5/26/26 33/45/45 6/46/46
f 6/46/46 33/45/45 31/47/47
f 6/46/46 31/47/47 7/48/48
f 25/40/40 26/49/49 41/41/41
f 41/41/41 26/49/49 27/50/50
f 41/41/41 27/50/50 39/42/42
f 39/42/42 27/50/50 28/51/51
f 39/42/42 28/51/51 37/43/43
f 37/43/43 28/51/51 29/52/52
f 37/43/43 29/52/52 35/44/44
f 35/44/44 29/52/52 30/53/53
f 35/44/44 30/53/53 33/45/45
f 33/45/45 30/53/53 31/47/47
f 8/54/54 7/55/55 47/56/56
f 47/56/56 7/55/55 31/57/57
f 47/56/56 31/57/57 46/58/58
f 46/58/58 31/57/57 30/59/59
f 46/58/58 30/59/59 45/60/60
f 45/60/60 30/59/59 29/61/61
f 45/60/60 29/61/61 44/62/62
f 44/62/62 29/61/61 28/63/63
f 44/62/62 28/63/63 43/64/64
f 43/64/64 28/63/63 27/65/65
f 43/64/64 27/65/65 42/66/66
f 42/66/66 27/65/65 26/67/67
f 9/68/68 8/69/69 55/70/70
f 55/70/70 8/69/69 47/71/71
f 55/70/70 47/71/71 56/72/72
f 56/72/72 47/71/71 46/73/73
f 56/72/72 46/73/73 57/74/74
f 57/74/74 46/73/73 45/75/75
f 57/74/74 45/75/75 58/76/76
f 58/76/76 45/75/75 44/77/77
f 58/76/76 44/77/77 59/78/78
f 59/78/78 44/77/77 43/79/79
f 59/78/78 43/79/79 48/80/80
f 48/80/80 43/79/79 42/81/81
f 48/80/80 49/82/82 59/78/78
f 59/78/78 49/82/82 50/83/83
f 59/78/78 50/83/83 58/76/76
f 58/76/76 50/83/83 51/84/84
f 58/76/76 51/84/84 57/74/74
f 57/74/74 51/84/84 52/85/85
f 57/74/74 52/85/85 56/72/72
f 56/72/72 52/85/85 53/86/86
f 56/72/72 53/86/86 55/70/70
f 55/70/70 53/86/86 54/87/87
f 55/70/70 54/87/87 9/68/68
f 9/68/68 54/87/87 1/88/88
f 2/89/89 1/90/90 61/91/91
f 61/91/91 1/90/90 54/92/92
f 61/91/91 54/92/92 62/93/93
f 62/93/93 54/92/92 53/94/94
f 62/93/93 53/94/94 63/95/95
f 63/95/95 53/94/94 52/96/96
f 63/95/95 52/96/96 64/97/97
f 64/97/97 52/96/96 51/98/98
f 64/97/97 51/98/98 65/99/99
f 65/99/99 51/98/98 50/100/100
f 65/99/99 50/100/100 60/101/101
f 60/101/101 50/100/100 49/102/102
f 60/101/101 17/103/103 65/99/99
f 65/99/99 17/103/103 16/104/104
f 65/99/99 16/104/104 64/97/97
f 64/97/97 16/104/104 15/105/105
f 64/97/97 15/105/105 63/95/95
f 63/95/95 15/105/105 14/106/106
f 63/95/95 14/106/106 62/93/93
f 62/93/93 14/106/106 13/107/107
f 62/93/93 13/107/107 61/91/91
f 61/91/91 13/107/107 12/108/108
f 61/91/91 12/108/108 2/89/89
f 2/89/89 12/108/108 3/109/109
f 18/110/110 17/111/111 66/112/112
f 66/112/112 17/111/111 60/113/113
f 66/112/112 60/113/113 49/114/114
f 66/112/112 49/114/114 67/115/115
f 67/115/115 49/114/114 48/116/116
f 67/115/115 48/116/116 42/117/117
f 42/117/117 26/118/118 67/115/115
f 67/115/115 26/118/118 25/119/119
f 67/115/115 25/119/119 66/112/112
f 66/112/112 25/119/119 24/120/120
f 66/112/112 24/120/120 18/110/110
# 67 vertices
# 120 texture params
# 120 normals
# 130 facets

# 1 groups
